PathFileType	4	(X/Y/Z)	Patient4_TMGait_0pt5_01_right_26.trc.trc
DataRate	CameraRate	NumFrames	NumMarkers	Units	OrigDataRate	OrigDataStartFrame	OrigNumFrames
77.348066298342	77.348066298342	6	33	mm	77.348066298342	53	       141
Frame#	Time	L.ASIS			Sacral			L.Shoulder			Chest			R.Shoulder			Neck			R.ASIS			R.Thigh.Superior			R.Thigh.Lateral			R.Thigh.Inferior			R.Patella			L.Thigh.Superior			L.Thigh.Lateral			L.Thigh.Inferior			L.Patella			L.Shank.Superior			L.Shank.Lateral			L.Shank.Inferior			R.Shank.Superior			R.Shank.Lateral			R.Shank.Inferior			R.Heel			R.Midfoot.Superior			R.Midfoot.Lateral			R.Toe			L.Heel			L.Midfoot.Lateral			L.Midfoot.Superior			L.Toe			L.Elbow			L.Wrist			R.Elbow			R.Wrist			
		X1	Y1	Z1	X2	Y2	Z2	X3	Y3	Z3	X4	Y4	Z4	X5	Y5	Z5	X6	Y6	Z6	X7	Y7	Z7	X8	Y8	Z8	X9	Y9	Z9	X10	Y10	Z10	X11	Y11	Z11	X12	Y12	Z12	X13	Y13	Z13	X14	Y14	Z14	X15	Y15	Z15	X16	Y16	Z16	X17	Y17	Z17	X18	Y18	Z18	X19	Y19	Z19	X20	Y20	Z20	X21	Y21	Z21	X22	Y22	Z22	X23	Y23	Z23	X24	Y24	Z24	X25	Y25	Z25	X26	Y26	Z26	X27	Y27	Z27	X28	Y28	Z28	X29	Y29	Z29	X30	Y30	Z30	X31	Y31	Z31	X32	Y32	Z32	X33	Y33	Z33	

53	34.822285714286	804.371097061061	963.254490385862	359.158127801122	604.973213178919	1006.756005138950	534.007666023734	759.927960121553	1434.724253921573	338.746892927081	878.790371998610	1366.395196213572	489.025269754743	812.389879547955	1441.639542896277	670.917699157706	776.761522178739	1496.391695648021	488.632051975483	842.656239926725	943.199338861138	630.741129697249	873.623929607803	739.182205394372	596.647740795254	793.258623924614	632.715540608055	660.116441042000	860.689211722344	578.709406240178	573.292727955281	857.029597650157	490.999562024759	576.739476698027	894.860058764053	788.550728359287	387.464913467136	854.667523822566	659.057305981080	312.812539046823	961.414699523444	602.918032309464	372.014348396873	984.023980217021	520.818295502104	365.828440110398	939.618068346510	445.176986534468	358.339841542769	822.057204141549	357.499582236387	310.134250377812	857.611382360596	231.697212028593	364.535376423213	828.881986031217	402.379940104773	584.657702454679	759.100440407976	298.556633708907	646.889684161218	795.509016868358	205.101120078491	580.684802446073	656.864780176742	41.946607005783	552.523487590006	828.445845017805	97.513663295643	583.455972251099	742.054679442965	35.986381632034	625.585514015863	949.515178267284	46.923770560904	608.500687384876	703.947644262139	103.995356529995	404.151425478657	771.957264660809	81.514582574015	323.019714762076	867.037847860771	126.216600696932	342.338397301484	978.334071672334	49.920071259421	313.630917397276	684.069745826200	1085.127677303450	228.435857755912	768.400263963121	836.640288812654	215.688054305496	860.809208857441	1107.041806930896	806.579497205050	1095.059304845104	1006.730619204216	767.076669496729	
54	34.835214285714	802.804564211971	963.347214091219	359.175869888113	604.280242568270	1007.045620873772	535.143841282035	758.849199252671	1434.620577486503	339.151357416156	878.595508932703	1366.031833079063	488.585050910801	813.805016606621	1441.587340004876	670.909984303445	776.786954692724	1496.316119134532	488.872340915322	842.047512101374	942.889121237995	630.713918525884	871.331235332930	738.498093763164	596.476194854937	790.553688442531	632.436929451449	660.365032250978	857.253014922732	578.023147148712	573.338321306371	853.007495149243	490.305451292602	576.907908358840	892.650136955772	788.484884729113	387.355458509215	852.264172523571	659.038097364858	312.590632332931	958.481878217325	602.891220867861	372.614424237003	982.414216869120	523.081879533465	366.388813009839	942.215973061021	447.116629086661	358.025846412737	831.256116012950	352.137157845670	308.719854318454	875.148851511328	228.461527550410	362.781736832233	824.393515904886	401.839302033958	584.730697714672	754.144026736179	298.358081304858	647.012801248338	789.801617253093	204.717339469143	580.660116630344	650.375758594667	41.994180011107	552.548303171759	821.982412360536	97.373921680521	583.444027328898	735.562612986249	35.993094238193	625.620198099278	943.065381607459	46.572877455673	608.591673956127	730.787725423154	89.747130348677	401.542533602166	800.316444951691	73.038415216655	320.207940937847	892.020275130378	124.064421552994	339.938325896314	1008.472371760932	56.146437626031	310.634968306206	678.617527695725	1085.636300551573	230.467514525908	753.218263220172	834.074871074663	218.761481005945	869.870658690636	1108.050957200416	805.088836325360	1107.651671011498	1020.009501898594	760.311871822523	
55	34.848142857143	801.379212926533	963.321423852085	359.046513243016	603.649160083768	1007.238262954668	536.093391020468	757.890127020324	1434.484257737768	339.449223984184	878.449682856665	1365.605218516098	488.067817881101	815.162274599991	1441.412964790217	670.790766352399	776.845302580087	1496.167457095468	489.034068157196	841.517219652816	942.535095284737	630.553067328689	869.250737008049	737.796715907426	596.237899673967	788.068357804481	632.098699919265	660.493587426986	854.075887177426	577.309927339620	573.296338147403	849.223509456162	489.542403500005	576.968333793428	890.221364650834	787.912397294980	387.267717456733	849.581838626699	658.707882116353	312.195737366772	954.992327188574	602.306901585122	373.359995851160	980.193321255358	524.914260232823	367.084174110825	944.184665116357	448.933366677704	357.834064327626	840.418244408473	347.079796347002	307.124869378141	892.207499641990	226.109354713240	361.201814857554	820.116166715708	401.241326370401	584.711904549641	749.358423923222	298.145879955113	647.070894371673	784.183295829632	204.296424020157	580.582919618999	643.895339862565	42.056537368887	552.576184954407	815.529372176718	97.228639887680	583.410654216128	729.082666272989	36.009751442060	625.655323609553	936.625347655490	46.200217421248	608.683759187740	757.583422987071	77.194060549795	398.700766084160	828.626430409388	66.076827738815	317.540256004659	916.501304608692	123.130302974374	337.962216311022	1037.595786392485	63.661343782514	308.792331707654	673.359851776068	1086.209064172221	232.302676802593	738.694848655552	832.104107186047	221.944259059805	878.892672533540	1109.106164544579	803.309627424475	1119.406709558639	1033.437720870135	753.221519084639	
56	34.861071428571	800.086241992157	963.193176071442	358.781788733046	603.078242497250	1007.342503044548	536.857687843228	757.049640399476	1434.317038214136	339.630526690380	878.347742638699	1365.129268508611	487.473979316037	816.445499248911	1441.141049724954	670.555020070979	776.933914877009	1495.955683290751	489.103689078880	841.076196484200	942.140044951999	630.262689718328	867.393629934855	737.081469412024	595.928860552360	785.803042310705	631.704373887614	660.494078545443	851.153143369127	576.569180661051	573.157082719991	845.671713335606	488.712569305091	576.907373913521	887.642427915734	786.930181636630	387.205423277066	846.769464399517	658.169947789291	311.606208192766	951.151198618807	601.306627584356	374.155021363636	977.541547368177	526.374705064339	367.824436416152	945.615120814985	450.665034562527	357.716893626790	849.406469278841	342.504056021681	305.422782659657	908.502303099360	224.727489370534	359.854088799359	816.039299680860	400.588253274955	584.592180951160	744.735593525937	297.925486865178	647.058914912894	778.649243374439	203.846953445312	580.453038700240	637.422353425848	42.131091022152	552.608990046526	809.086236256459	97.083028562260	583.360031991612	722.613756285768	36.036628129183	625.691932002079	930.193543107335	45.815075479811	608.776393500989	783.782919588694	66.627521555157	395.814634327296	856.317146226773	60.750651613451	315.185980099486	940.033725037510	123.426310196052	336.495987928731	1065.193367190147	72.263827553874	308.185978345964	668.270876249366	1086.846613943556	233.947821311226	724.907281846439	830.682585037469	225.158739399632	887.819586169557	1110.224766422849	801.245034682295	1130.270421713009	1046.941490832746	745.853577588460	
57	34.874000000000	798.918462932426	962.984190523832	358.392989160885	602.571851912308	1007.368601200860	537.440066926809	756.319991674541	1434.122951626612	339.688210264329	878.283102344223	1364.620597432002	486.803470802339	817.643896810940	1440.798399937146	670.199596129680	777.047357558967	1495.692973052009	489.069559400985	840.734302707147	941.706855735909	629.845704941703	865.756465057048	736.354195844400	595.539112531540	783.743721117889	631.261388325751	660.361108337129	848.458877648270	575.801011699562	572.910590355517	842.330061890310	487.823157136056	576.717060762616	885.003812449138	785.656572245252	387.156506176215	843.976024293010	657.519996065671	310.828962902151	947.184821369595	600.037982848773	374.897371732912	974.650707096701	527.520163223228	368.520674028886	946.611476287026	452.327401392434	357.617637162588	858.038253202867	338.529204891564	303.716529115680	923.755849620918	224.298019706221	358.766982814375	812.135313092557	399.886370257271	584.366149051832	740.253446985102	297.703552398757	646.973750332095	773.188046856000	203.379366900794	580.272703333640	630.954878191735	42.215569349685	552.647484111974	802.652411168544	96.942561709724	583.297395759414	716.153500457698	36.072677477537	625.729684522341	923.767627304138	45.427455112841	608.868268804132	808.819519726241	58.170131408986	393.100250435517	882.772306778887	57.036628348664	313.281530830503	962.170932798635	124.836225052900	335.553718634545	1090.781218277197	81.616432229424	308.706309991759	663.328843129306	1087.549418206057	235.415714755070	711.921333260486	829.755767062317	228.327732238195	896.588823962659	1111.423391637865	798.904050452631	1140.199462986169	1060.443148054886	738.260146060034	
58	34.886928571429	797.873630790193	962.718097669685	357.888858119276	602.142022471668	1007.326031116104	537.845216861568	755.686105442233	1433.907791828012	339.618305002502	878.247416431777	1364.097200372849	486.054867735622	818.751249001905	1440.410799094510	669.722920857313	777.177030328185	1495.392132209629	488.922237296581	840.500133501410	941.239801455983	629.303495446652	864.322103522900	735.615326924451	595.054704427092	781.863535847362	630.780343837688	660.093037105275	845.950512068027	575.006298649044	572.549699799144	839.162641441439	486.885129512089	576.396268511784	882.416387609070	784.221935905097	387.093521645672	841.338274556574	656.833706206341	309.902767365989	943.323105360147	598.639826064230	375.493473403084	971.716430462064	528.399554857692	369.096064542191	947.283626243529	453.909928481001	357.482101429278	866.102532434850	335.211217779581	302.125352351091	937.707342749893	224.704150296826	357.941070200506	808.363971901146	399.145499211592	584.034003767599	735.878777533238	297.487611225666	646.815456577890	767.783132587745	202.904852393159	580.046582730285	624.490678107070	42.308567037814	552.691433369836	796.227453293048	96.812399634644	583.228535232288	709.698634934352	36.116016401262	625.767288858091	917.344844894172	45.046948551246	608.957358017910	832.135109504788	51.784201128427	390.775665057993	907.356427954302	54.783334960900	311.915058123662	982.482165514573	127.130579901476	335.081766285214	1113.913877470661	91.267637643300	310.069694659557	658.518736732227	1088.316361303482	236.722625806366	699.791244426946	829.262291116617	231.378000423538	905.135563472103	1112.715402778404	796.302713900804	1149.164294567424	1073.859001150622	730.497846626851	
